<?xml version="1.0" encoding="UTF-8"?>
<svg id="Layer_1" data-name="Layer 1" xmlns="http://www.w3.org/2000/svg" viewBox="0 0 800 800">
  <defs>
    <style>
      .cls-1 {
        fill: #333;
      }

      .cls-2 {
        fill: #231f20;
      }

      .cls-2, .cls-3, .cls-4 {
        stroke: #333;
        stroke-miterlimit: 10;
      }

      .cls-3 {
        stroke-width: 2px;
      }

      .cls-3, .cls-4 {
        fill: none;
      }

      .cls-4 {
        stroke-width: .5px;
      }
    </style>
  </defs>
  <g>
    <path class="cls-1" d="m322.59,225.38l-1.35-3.87c-.2.69-.49,1.39-.87,2.12-.38.73-.86,1.42-1.44,2.09-.59.67-1.3,1.29-2.13,1.87-.84.58-1.8,1.06-2.89,1.45s-2.23.61-3.39.67c-1.17.07-2.29-.05-3.35-.37-1.06-.31-2.02-.83-2.87-1.55-.85-.73-1.49-1.7-1.91-2.91l-.03-.09c-.42-1.21-.55-2.38-.38-3.5.17-1.12.59-2.15,1.25-3.09.66-.95,1.55-1.8,2.68-2.57,1.13-.77,2.45-1.42,3.97-1.95,1.64-.57,3.08-.97,4.33-1.21,1.25-.23,2.49-.39,3.72-.48l-.35-1c-.82-2.36-2.12-3.89-3.88-4.59-1.76-.71-3.85-.64-6.24.2-1.43.5-2.67,1.13-3.74,1.89-1.06.76-2.03,1.6-2.9,2.52l-1.51-1.67c1.06-1.07,2.18-2.01,3.35-2.84,1.18-.83,2.57-1.52,4.18-2.09,3.01-1.05,5.64-1.12,7.9-.21,2.26.92,3.92,2.89,4.98,5.93l5.06,14.49-2.19.76Zm-3.92-11.37c-1.06.1-2.28.26-3.66.49-1.39.23-2.91.64-4.58,1.22-2.46.86-4.18,2.01-5.16,3.46-.98,1.44-1.18,2.98-.61,4.62l.03.09c.3.85.74,1.53,1.33,2.06.59.52,1.28.9,2.06,1.14.78.24,1.62.33,2.53.29.9-.04,1.8-.22,2.68-.53,1.19-.41,2.25-.98,3.19-1.7.94-.72,1.71-1.53,2.3-2.43.59-.9.96-1.87,1.13-2.91.16-1.04.06-2.09-.31-3.15l-.92-2.63Z"/>
    <path class="cls-1" d="m360.16,208.31c-.12.98-.44,1.89-.96,2.73-.52.85-1.21,1.6-2.08,2.26-.86.66-1.85,1.18-2.98,1.57-1.7.59-3.51.87-5.44.83-1.92-.04-3.68-.35-5.28-.92l.7-2.24c1.62.53,3.21.81,4.8.85,1.58.04,3.12-.19,4.61-.71,1.58-.55,2.77-1.41,3.57-2.58.8-1.16.97-2.43.49-3.79l-.03-.09c-.23-.67-.6-1.18-1.1-1.55-.5-.37-1.11-.63-1.81-.8-.7-.16-1.46-.24-2.28-.22-.81.01-1.67.04-2.58.08-1.04.06-2.09.1-3.15.13-1.06.03-2.06-.05-2.98-.26-.92-.2-1.74-.57-2.46-1.11-.71-.53-1.25-1.32-1.61-2.35l-.03-.09c-.33-.94-.44-1.86-.33-2.77.11-.91.4-1.76.87-2.57s1.12-1.54,1.95-2.19c.83-.65,1.81-1.17,2.93-1.56,1.4-.49,2.91-.76,4.55-.8,1.64-.05,3.17.12,4.6.52l-.53,2.28c-1.31-.33-2.65-.49-4.03-.48s-2.69.22-3.94.66c-1.61.56-2.76,1.4-3.45,2.5-.69,1.11-.83,2.24-.43,3.39l.03.09c.22.64.6,1.13,1.13,1.47.53.34,1.15.58,1.86.7.71.12,1.5.18,2.38.16s1.77-.05,2.68-.09c1.04-.05,2.07-.08,3.09-.08,1.02,0,1.99.12,2.89.37.9.25,1.7.64,2.38,1.18.68.54,1.21,1.33,1.57,2.36l.03.09c.36,1.03.48,2.03.36,3.01Z"/>
    <path class="cls-1" d="m392.13,201.33c-.54.34-1.18.64-1.91.9-.91.32-1.8.49-2.68.53-.88.03-1.7-.11-2.48-.44-.78-.32-1.47-.83-2.09-1.52-.62-.69-1.11-1.58-1.5-2.67l-5.31-15.22-3.37,1.18-.72-2.05,3.37-1.18-2.59-7.43,2.23-.78,2.59,7.43,8.16-2.85.72,2.05-8.16,2.85,5.22,14.96c.58,1.67,1.42,2.68,2.52,3.05,1.1.36,2.33.31,3.7-.17.58-.2,1.1-.45,1.58-.74.48-.29,1-.7,1.57-1.22l.73,2.1c-.51.49-1.04.9-1.59,1.24Z"/>
    <path class="cls-1" d="m419.14,167.94c-1.34.47-2.53,1.16-3.56,2.09-1.04.92-1.85,2.04-2.43,3.35-.58,1.31-.89,2.78-.94,4.42-.04,1.63.26,3.39.92,5.28l3.33,9.52-2.23.78-8.12-23.24,2.23-.78,2.31,6.61c.09-1.19.34-2.35.73-3.48.39-1.12.92-2.15,1.58-3.08.66-.93,1.46-1.74,2.4-2.42.94-.68,1.99-1.21,3.15-1.59l.86,2.46-.23.08Z"/>
    <path class="cls-1" d="m463.94,168.2c-.08,1.67-.47,3.25-1.15,4.75-.69,1.5-1.64,2.83-2.87,3.99-1.23,1.16-2.71,2.05-4.44,2.65-1.73.6-3.43.83-5.1.68-1.67-.15-3.23-.58-4.67-1.31s-2.72-1.71-3.82-2.96c-1.1-1.25-1.94-2.7-2.51-4.34l-.03-.09c-.57-1.64-.82-3.29-.74-4.96.08-1.67.47-3.25,1.15-4.75.69-1.5,1.64-2.83,2.87-3.99,1.23-1.16,2.71-2.05,4.44-2.65,1.73-.6,3.43-.83,5.1-.68,1.67.15,3.23.59,4.67,1.31,1.44.72,2.72,1.71,3.82,2.96,1.1,1.25,1.94,2.7,2.51,4.34l.03.09c.57,1.64.82,3.29.73,4.96Zm-3.1-4.13c-.49-1.39-1.19-2.61-2.1-3.67-.92-1.05-1.97-1.88-3.15-2.49-1.19-.6-2.46-.96-3.81-1.06-1.35-.1-2.7.08-4.05.55-1.37.48-2.56,1.19-3.55,2.13-.99.94-1.75,2-2.28,3.19-.53,1.19-.82,2.47-.87,3.84-.05,1.38.16,2.74.64,4.1l.03.09c.49,1.39,1.19,2.61,2.1,3.67.92,1.05,1.97,1.88,3.15,2.49,1.19.6,2.46.96,3.81,1.06,1.35.1,2.7-.08,4.05-.55,1.37-.48,2.56-1.19,3.55-2.13.99-.94,1.75-2,2.28-3.19.53-1.19.82-2.47.87-3.84.05-1.38-.16-2.74-.64-4.1l-.03-.09Z"/>
    <path class="cls-1" d="m507.18,160.92l-1.81-5.19c-.25.94-.57,1.87-.95,2.78-.38.92-.87,1.77-1.46,2.55-.59.79-1.31,1.51-2.16,2.16-.85.65-1.85,1.18-3,1.58-1.4.49-2.87.7-4.41.62-1.54-.07-3.03-.44-4.45-1.1-1.42-.66-2.73-1.63-3.9-2.91s-2.1-2.85-2.75-4.74l-.03-.09c-.66-1.88-.92-3.69-.79-5.42.13-1.73.54-3.31,1.24-4.73.7-1.42,1.62-2.65,2.78-3.68,1.15-1.03,2.43-1.8,3.83-2.28,1.15-.4,2.27-.62,3.35-.66,1.08-.03,2.1.07,3.05.32.96.25,1.86.6,2.72,1.05.86.45,1.66.96,2.4,1.52l-5.25-15.04,2.23-.78,11.62,33.26-2.23.78Zm-3.94-11.71c-.52-1.49-1.26-2.76-2.22-3.8-.96-1.04-2.04-1.85-3.22-2.4-1.19-.56-2.43-.88-3.75-.97-1.31-.09-2.58.08-3.79.51-1.28.45-2.39,1.09-3.35,1.94-.95.84-1.69,1.83-2.22,2.97-.53,1.14-.81,2.4-.85,3.8-.04,1.4.21,2.87.75,4.42l.03.09c.53,1.52,1.26,2.82,2.18,3.89.92,1.08,1.95,1.9,3.09,2.47,1.14.57,2.35.9,3.62.99s2.52-.09,3.74-.51c1.22-.43,2.31-1.08,3.29-1.97.97-.88,1.75-1.92,2.32-3.11.58-1.19.92-2.48,1.03-3.89.11-1.4-.1-2.85-.62-4.33l-.03-.09Z"/>
    <path class="cls-1" d="m547.51,146.83l-1.35-3.87c-.2.69-.49,1.39-.87,2.12-.38.73-.86,1.42-1.44,2.09-.59.67-1.3,1.29-2.13,1.87-.84.58-1.8,1.06-2.89,1.44s-2.23.61-3.39.67c-1.17.07-2.29-.05-3.35-.36-1.06-.31-2.02-.83-2.87-1.55-.85-.73-1.49-1.7-1.91-2.91l-.03-.09c-.42-1.21-.55-2.38-.38-3.5.17-1.12.59-2.15,1.25-3.09.66-.95,1.55-1.8,2.68-2.57,1.13-.77,2.45-1.42,3.97-1.95,1.64-.57,3.08-.97,4.33-1.21,1.25-.23,2.49-.39,3.72-.48l-.35-1c-.82-2.36-2.12-3.89-3.88-4.59-1.76-.71-3.84-.64-6.24.2-1.43.5-2.67,1.13-3.74,1.89-1.06.76-2.03,1.6-2.9,2.52l-1.51-1.67c1.06-1.07,2.18-2.01,3.35-2.84,1.18-.83,2.57-1.52,4.18-2.09,3.01-1.05,5.64-1.12,7.9-.21,2.26.92,3.92,2.89,4.98,5.93l5.06,14.49-2.19.76Zm-3.92-11.37c-1.06.1-2.28.26-3.66.49-1.39.23-2.91.64-4.58,1.22-2.46.86-4.18,2.01-5.16,3.46-.98,1.44-1.18,2.98-.61,4.62l.03.09c.3.85.74,1.53,1.33,2.06s1.28.9,2.06,1.14c.78.24,1.62.33,2.53.29.91-.04,1.8-.22,2.68-.53,1.18-.41,2.25-.98,3.19-1.7.94-.72,1.71-1.53,2.29-2.43.59-.9.96-1.87,1.13-2.91.16-1.04.06-2.09-.31-3.15l-.92-2.63Z"/>
    <path class="cls-1" d="m585.08,129.76c-.12.98-.44,1.89-.96,2.73-.52.85-1.21,1.6-2.07,2.26-.86.66-1.85,1.18-2.98,1.57-1.7.59-3.51.87-5.44.83-1.92-.04-3.68-.35-5.28-.92l.7-2.24c1.62.53,3.21.81,4.8.85,1.58.04,3.12-.19,4.61-.71,1.58-.55,2.77-1.41,3.57-2.58.8-1.16.97-2.43.49-3.79l-.03-.09c-.23-.67-.6-1.18-1.1-1.55-.5-.37-1.11-.63-1.81-.8-.7-.16-1.46-.24-2.28-.22-.81.01-1.67.04-2.58.08-1.04.06-2.09.1-3.15.13-1.06.03-2.06-.05-2.98-.26-.92-.2-1.74-.57-2.46-1.11s-1.25-1.32-1.61-2.35l-.03-.09c-.33-.94-.44-1.86-.33-2.77.11-.91.4-1.76.87-2.57.47-.81,1.12-1.54,1.95-2.19.83-.65,1.81-1.17,2.93-1.56,1.4-.49,2.91-.76,4.55-.8s3.17.12,4.6.52l-.53,2.28c-1.31-.33-2.65-.49-4.03-.48s-2.69.22-3.94.66c-1.61.56-2.76,1.4-3.45,2.5s-.83,2.24-.43,3.39l.03.09c.22.64.6,1.13,1.13,1.47.53.34,1.15.58,1.86.7.71.13,1.5.18,2.38.16.88-.02,1.77-.05,2.68-.09,1.04-.05,2.07-.08,3.09-.08,1.02,0,1.99.12,2.89.37.9.25,1.7.64,2.38,1.18.68.54,1.21,1.33,1.57,2.36l.03.09c.36,1.03.48,2.03.36,3.01Z"/>
    <path class="cls-1" d="m625.38,119.64l-4.82-13.81c-.84-2.4-2.15-4.1-3.93-5.1-1.78-1-3.85-1.08-6.22-.26-1.15.4-2.15.98-2.97,1.73-.83.75-1.48,1.62-1.96,2.6-.47.98-.74,2.06-.79,3.22-.05,1.16.13,2.35.55,3.56l4.69,13.44-2.23.78-11.62-33.26,2.23-.78,5.01,14.35c.31-1.64.97-3.17,1.98-4.58,1.01-1.41,2.58-2.48,4.7-3.23,1.46-.51,2.85-.73,4.17-.66,1.32.07,2.53.39,3.63.96,1.1.57,2.06,1.37,2.88,2.39.82,1.03,1.47,2.24,1.96,3.63l4.96,14.22-2.23.78Z"/>
  </g>
  <g>
    <g>
      <rect class="cls-3" x="656.82" y="7.84" width="43.17" height="151.08" transform="translate(9.17 222.33) rotate(-18.74)"/>
      <path class="cls-3" d="m682.15,162l-.04-.11-48.57-143.19,41.1-13.94.04.11,48.57,143.19-41.1,13.94Zm-48.3-143.15l48.45,142.85,40.65-13.79L674.5,5.06l-40.65,13.79Z"/>
    </g>
    <rect class="cls-3" x="463.65" y="61.97" width="195.53" height="125.43" transform="translate(-10.3 186.94) rotate(-18.74)"/>
    <rect class="cls-3" x="242.3" y="157.82" width="234.62" height="79.66" transform="translate(-44.43 125.99) rotate(-18.74)"/>
    <rect class="cls-3" x="102.99" y="242.18" width="150.18" height="34.08" transform="translate(-73.83 70.94) rotate(-18.74)"/>
    <rect class="cls-3" x="84.77" y="256.25" width="38.29" height="56.26" transform="translate(-85.84 48.45) rotate(-18.74)"/>
    <path class="cls-3" d="m437.77,282.49c0,14.32-11.61,25.93-25.93,25.93h0c-14.32,0-25.93-11.61-25.93-25.93v-46.55c0-14.32,11.61-25.93,25.93-25.93h0c14.32,0,25.93,11.61,25.93,25.93v46.55Z"/>
    <g>
      <circle class="cls-4" cx="411.84" cy="279.17" r="14.01" transform="translate(-8.02 12.22) rotate(-1.68)"/>
      <path class="cls-4" d="m411.84,293.26c-7.77,0-14.09-6.32-14.09-14.09s6.32-14.09,14.09-14.09,14.09,6.32,14.09,14.09-6.32,14.09-14.09,14.09Zm0-28.01c-7.68,0-13.92,6.25-13.92,13.92s6.25,13.92,13.92,13.92,13.92-6.25,13.92-13.92-6.25-13.92-13.92-13.92Z"/>
    </g>
    <path class="cls-3" d="m440.73,363.38c0,18.68-12.43,33.82-27.76,33.82h0c-15.33,0-27.76-15.14-27.76-33.82v-28.9c0-18.68,12.43-33.82,27.76-33.82h0c15.33,0,27.76,15.14,27.76,33.82v28.9Z"/>
    <rect class="cls-3" x="370.87" y="373.36" width="86.42" height="48.74"/>
    <rect class="cls-3" x="363.95" y="397.73" width="104.27" height="64.25"/>
    <path class="cls-3" d="m428.79,613.56c0,7.02-5.69,12.72-12.72,12.72h0c-7.02,0-12.72-5.69-12.72-12.72v-171.22c0-7.02,5.69-12.72,12.72-12.72h0c7.02,0,12.72,5.69,12.72,12.72v171.22Z"/>
    <path class="cls-3" d="m425.25,727.89c0,4.74-4.11,8.58-9.17,8.58h0c-5.06,0-9.17-3.84-9.17-8.58v-115.49c0-4.74,4.11-8.58,9.17-8.58h0c5.06,0,9.17,3.84,9.17,8.58v115.49Z"/>
    <path class="cls-3" d="m421.56,786.75c0,3.03-2.45,5.48-5.48,5.48h0c-3.03,0-5.48-2.45-5.48-5.48v-73.79c0-3.03,2.45-5.48,5.48-5.48h0c3.03,0,5.48,2.45,5.48,5.48v73.79Z"/>
    <path class="cls-3" d="m318.09,618.95c-3.06,6.32-10.67,8.96-16.99,5.89h0c-6.32-3.06-8.96-10.67-5.89-16.99l74.7-154.07c3.06-6.32,10.67-8.96,16.99-5.89h0c6.32,3.06,8.96,10.67,5.89,16.99l-74.7,154.07Z"/>
    <path class="cls-3" d="m261.27,728c-2.21,4.56-7.69,6.46-12.25,4.25h0c-4.56-2.21-6.46-7.7-4.25-12.25l53.87-111.11c2.21-4.56,7.69-6.46,12.25-4.25h0c4.56,2.21,6.46,7.69,4.25,12.25l-53.87,111.11Z"/>
    <path class="cls-3" d="m226.06,792.16c-1.23,2.54-4.44,3.53-7.16,2.21h0c-2.72-1.32-3.93-4.45-2.7-6.99l30.03-61.94c1.23-2.54,4.44-3.53,7.16-2.21h0c2.72,1.32,3.93,4.45,2.7,6.99l-30.03,61.94Z"/>
    <path class="cls-3" d="m513.11,618.1c3.06,6.32,10.67,8.96,16.99,5.89h0c6.32-3.06,8.96-10.67,5.89-16.99l-74.7-154.07c-3.06-6.32-10.67-8.96-16.99-5.89h0c-6.32,3.06-8.96,10.67-5.89,16.99l74.7,154.07Z"/>
    <path class="cls-3" d="m569.93,727.14c2.21,4.56,7.69,6.46,12.25,4.25h0c4.56-2.21,6.46-7.7,4.25-12.25l-53.87-111.11c-2.21-4.56-7.69-6.46-12.25-4.25h0c-4.56,2.21-6.46,7.69-4.25,12.25l53.87,111.11Z"/>
    <path class="cls-3" d="m606.38,791.69c1.27,2.57,4.39,3.65,6.96,2.43h0c2.58-1.23,3.64-4.3,2.37-6.87l-30.94-62.59c-1.27-2.57-4.39-3.65-6.96-2.43h0c-2.58,1.22-3.64,4.3-2.37,6.87l30.94,62.59Z"/>
    <path class="cls-2" d="m428.79,792.23c0,1.66-1.35,3.01-3.01,3.01h-19.42c-1.66,0-3.01-1.35-3.01-3.01h0c0-1.66,1.35-3.01,3.01-3.01h19.42c1.66,0,3.01,1.35,3.01,3.01h0Z"/>
    <path class="cls-2" d="m233.26,792.2c0,1.66-1.35,3.01-3.01,3.01h-19.42c-1.66,0-3.01-1.35-3.01-3.01h0c0-1.66,1.35-3.01,3.01-3.01h19.42c1.66,0,3.01,1.35,3.01,3.01h0Z"/>
    <path class="cls-2" d="m624.66,792.23c0,1.66-1.35,3.01-3.01,3.01h-19.42c-1.66,0-3.01-1.35-3.01-3.01h0c0-1.66,1.35-3.01,3.01-3.01h19.42c1.66,0,3.01,1.35,3.01,3.01h0Z"/>
  </g>
</svg>