<?xml version="1.0" encoding="UTF-8"?>
<svg id="Layer_1" data-name="Layer 1" xmlns="http://www.w3.org/2000/svg" viewBox="0 0 800 800">
  <defs>
    <style>
      .cls-1 {
        fill: #f3f3f4;
      }

      .cls-2 {
        fill: #333;
      }
    </style>
  </defs>
  <g>
    <g>
      <rect class="cls-1" x="656.82" y="7.84" width="43.17" height="151.08" transform="translate(9.17 222.33) rotate(-18.74)"/>
      <path class="cls-1" d="m682.15,162l-.04-.11-48.57-143.19,41.1-13.94.04.11,48.57,143.19-41.1,13.94Zm-48.3-143.15l48.45,142.85,40.65-13.79L674.5,5.06l-40.65,13.79Z"/>
    </g>
    <rect class="cls-1" x="463.65" y="61.97" width="195.53" height="125.43" transform="translate(-10.3 186.94) rotate(-18.74)"/>
    <rect class="cls-1" x="242.3" y="157.82" width="234.62" height="79.66" transform="translate(-44.43 125.99) rotate(-18.74)"/>
    <rect class="cls-1" x="102.99" y="242.18" width="150.18" height="34.08" transform="translate(-73.83 70.94) rotate(-18.74)"/>
    <rect class="cls-1" x="84.77" y="256.25" width="38.29" height="56.26" transform="translate(-85.84 48.45) rotate(-18.74)"/>
    <path class="cls-1" d="m437.77,282.49c0,14.32-11.61,25.93-25.93,25.93h0c-14.32,0-25.93-11.61-25.93-25.93v-46.55c0-14.32,11.61-25.93,25.93-25.93h0c14.32,0,25.93,11.61,25.93,25.93v46.55Z"/>
    <g>
      <circle class="cls-1" cx="411.84" cy="279.17" r="14.01" transform="translate(-8.02 12.22) rotate(-1.68)"/>
      <path class="cls-1" d="m411.84,293.26c-7.77,0-14.09-6.32-14.09-14.09s6.32-14.09,14.09-14.09,14.09,6.32,14.09,14.09-6.32,14.09-14.09,14.09Zm0-28.01c-7.68,0-13.92,6.25-13.92,13.92s6.25,13.92,13.92,13.92,13.92-6.25,13.92-13.92-6.25-13.92-13.92-13.92Z"/>
    </g>
    <path class="cls-1" d="m440.73,363.38c0,18.68-12.43,33.82-27.76,33.82h0c-15.33,0-27.76-15.14-27.76-33.82v-28.9c0-18.68,12.43-33.82,27.76-33.82h0c15.33,0,27.76,15.14,27.76,33.82v28.9Z"/>
    <rect class="cls-1" x="370.87" y="373.36" width="86.42" height="48.74"/>
    <rect class="cls-1" x="363.95" y="397.73" width="104.27" height="64.25"/>
    <path class="cls-1" d="m428.79,613.56c0,7.02-5.69,12.72-12.72,12.72h0c-7.02,0-12.72-5.69-12.72-12.72v-171.22c0-7.02,5.69-12.72,12.72-12.72h0c7.02,0,12.72,5.69,12.72,12.72v171.22Z"/>
    <path class="cls-1" d="m425.25,727.89c0,4.74-4.11,8.58-9.17,8.58h0c-5.06,0-9.17-3.84-9.17-8.58v-115.49c0-4.74,4.11-8.58,9.17-8.58h0c5.06,0,9.17,3.84,9.17,8.58v115.49Z"/>
    <path class="cls-1" d="m421.56,786.75c0,3.03-2.45,5.48-5.48,5.48h0c-3.03,0-5.48-2.45-5.48-5.48v-73.79c0-3.03,2.45-5.48,5.48-5.48h0c3.03,0,5.48,2.45,5.48,5.48v73.79Z"/>
    <path class="cls-1" d="m318.09,618.95c-3.06,6.32-10.67,8.96-16.99,5.89h0c-6.32-3.06-8.96-10.67-5.89-16.99l74.7-154.07c3.06-6.32,10.67-8.96,16.99-5.89h0c6.32,3.06,8.96,10.67,5.89,16.99l-74.7,154.07Z"/>
    <path class="cls-1" d="m261.27,728c-2.21,4.56-7.69,6.46-12.25,4.25h0c-4.56-2.21-6.46-7.7-4.25-12.25l53.87-111.11c2.21-4.56,7.69-6.46,12.25-4.25h0c4.56,2.21,6.46,7.69,4.25,12.25l-53.87,111.11Z"/>
    <path class="cls-1" d="m226.06,792.16c-1.23,2.54-4.44,3.53-7.16,2.21h0c-2.72-1.32-3.93-4.45-2.7-6.99l30.03-61.94c1.23-2.54,4.44-3.53,7.16-2.21h0c2.72,1.32,3.93,4.45,2.7,6.99l-30.03,61.94Z"/>
    <path class="cls-1" d="m513.11,618.1c3.06,6.32,10.67,8.96,16.99,5.89h0c6.32-3.06,8.96-10.67,5.89-16.99l-74.7-154.07c-3.06-6.32-10.67-8.96-16.99-5.89h0c-6.32,3.06-8.96,10.67-5.89,16.99l74.7,154.07Z"/>
    <path class="cls-1" d="m569.93,727.14c2.21,4.56,7.69,6.46,12.25,4.25h0c4.56-2.21,6.46-7.7,4.25-12.25l-53.87-111.11c-2.21-4.56-7.69-6.46-12.25-4.25h0c-4.56,2.21-6.46,7.69-4.25,12.25l53.87,111.11Z"/>
    <path class="cls-1" d="m606.38,791.69c1.27,2.57,4.39,3.65,6.96,2.43h0c2.58-1.23,3.64-4.3,2.37-6.87l-30.94-62.59c-1.27-2.57-4.39-3.65-6.96-2.43h0c-2.58,1.22-3.64,4.3-2.37,6.87l30.94,62.59Z"/>
    <path class="cls-1" d="m428.79,792.23c0,1.66-1.35,3.01-3.01,3.01h-19.42c-1.66,0-3.01-1.35-3.01-3.01h0c0-1.66,1.35-3.01,3.01-3.01h19.42c1.66,0,3.01,1.35,3.01,3.01h0Z"/>
    <path class="cls-1" d="m233.26,792.2c0,1.66-1.35,3.01-3.01,3.01h-19.42c-1.66,0-3.01-1.35-3.01-3.01h0c0-1.66,1.35-3.01,3.01-3.01h19.42c1.66,0,3.01,1.35,3.01,3.01h0Z"/>
    <path class="cls-1" d="m624.66,792.23c0,1.66-1.35,3.01-3.01,3.01h-19.42c-1.66,0-3.01-1.35-3.01-3.01h0c0-1.66,1.35-3.01,3.01-3.01h19.42c1.66,0,3.01,1.35,3.01,3.01h0Z"/>
  </g>
  <g>
    <path class="cls-2" d="m280.54,235.3l-1.08-3.09c-.16.55-.4,1.11-.7,1.69-.3.58-.68,1.14-1.15,1.67-.47.53-1.04,1.03-1.7,1.49-.67.46-1.44.85-2.31,1.15-.87.31-1.78.48-2.71.54-.93.05-1.83-.04-2.67-.29-.85-.25-1.61-.66-2.29-1.24-.68-.58-1.19-1.35-1.53-2.33l-.03-.07c-.34-.97-.44-1.9-.3-2.79.14-.89.47-1.72,1-2.47.53-.76,1.24-1.44,2.14-2.06.9-.61,1.96-1.13,3.17-1.56,1.31-.46,2.46-.78,3.46-.96,1-.18,1.99-.31,2.97-.38l-.28-.8c-.66-1.88-1.69-3.11-3.1-3.67-1.41-.56-3.07-.51-4.99.16-1.14.4-2.14.9-2.98,1.51-.85.61-1.62,1.28-2.32,2.02l-1.2-1.34c.85-.85,1.74-1.61,2.68-2.27s2.05-1.22,3.34-1.67c2.4-.84,4.51-.89,6.31-.16,1.81.73,3.13,2.31,3.98,4.74l4.04,11.58-1.75.61Zm-3.13-9.08c-.84.08-1.82.21-2.93.39-1.11.18-2.33.51-3.66.97-1.97.69-3.34,1.61-4.12,2.76-.78,1.15-.94,2.38-.49,3.69l.03.07c.24.68.59,1.22,1.06,1.64.47.42,1.02.72,1.65.91.62.19,1.3.27,2.02.23.72-.03,1.44-.17,2.14-.42.95-.33,1.8-.78,2.55-1.36.75-.57,1.36-1.22,1.83-1.94.47-.72.77-1.5.9-2.33.13-.83.05-1.67-.25-2.52l-.73-2.1Z"/>
    <path class="cls-2" d="m301.82,224.71c-.09.78-.35,1.51-.77,2.18-.42.68-.97,1.28-1.66,1.8-.69.53-1.48.94-2.38,1.26-1.36.47-2.81.7-4.34.66-1.54-.03-2.94-.28-4.22-.73l.56-1.79c1.29.42,2.57.65,3.83.68,1.26.04,2.49-.16,3.68-.57,1.26-.44,2.21-1.12,2.86-2.06.64-.93.77-1.94.39-3.03l-.03-.07c-.19-.53-.48-.94-.88-1.24-.4-.29-.89-.51-1.45-.63-.56-.13-1.17-.19-1.82-.18-.65,0-1.34.03-2.06.07-.83.04-1.67.08-2.52.1s-1.64-.04-2.38-.21c-.74-.16-1.39-.46-1.96-.88s-1-1.05-1.29-1.87l-.03-.07c-.26-.75-.35-1.49-.26-2.21.09-.72.32-1.41.69-2.05s.89-1.23,1.55-1.75c.66-.52,1.44-.93,2.34-1.25,1.12-.39,2.33-.6,3.64-.64,1.31-.04,2.53.1,3.68.42l-.42,1.82c-1.04-.26-2.12-.39-3.22-.39-1.1,0-2.15.18-3.15.53-1.29.45-2.2,1.12-2.75,2-.55.88-.66,1.79-.34,2.71l.03.07c.18.51.48.9.9,1.17.42.27.92.46,1.48.56.57.1,1.2.15,1.9.13.7-.01,1.42-.04,2.14-.07.83-.04,1.65-.07,2.47-.07.82,0,1.59.1,2.31.29.72.2,1.36.51,1.9.95.55.43.96,1.06,1.25,1.89l.03.07c.29.82.38,1.63.29,2.41Z"/>
    <path class="cls-2" d="m318.62,222.19c-.44.27-.94.51-1.53.72-.73.25-1.44.39-2.14.42-.7.03-1.36-.09-1.98-.35-.62-.26-1.18-.66-1.67-1.21-.49-.55-.89-1.26-1.19-2.13l-4.25-12.16-2.69.94-.57-1.64,2.69-.94-2.07-5.93,1.78-.62,2.07,5.93,6.52-2.28.57,1.64-6.52,2.28,4.17,11.95c.47,1.33,1.14,2.14,2.01,2.43.88.29,1.86.25,2.95-.14.46-.16.88-.36,1.26-.6.38-.24.8-.56,1.25-.98l.58,1.67c-.41.39-.83.72-1.27.99Z"/>
    <path class="cls-2" d="m331.46,198.57c-1.07.37-2.02.93-2.85,1.67-.83.74-1.48,1.63-1.94,2.68-.47,1.05-.71,2.22-.75,3.53-.03,1.31.21,2.71.74,4.21l2.66,7.61-1.78.62-6.48-18.57,1.78-.62,1.84,5.28c.08-.95.27-1.88.58-2.78.31-.9.73-1.72,1.26-2.46.53-.74,1.17-1.39,1.92-1.94.75-.55,1.59-.97,2.52-1.27l.69,1.97-.18.06Z"/>
    <path class="cls-2" d="m358.51,201.82c-.07,1.33-.37,2.6-.92,3.79-.55,1.2-1.31,2.26-2.3,3.19-.98.93-2.17,1.63-3.55,2.12s-2.74.67-4.08.55c-1.34-.12-2.58-.47-3.73-1.04-1.16-.58-2.17-1.37-3.05-2.36-.88-1-1.55-2.16-2.01-3.47l-.03-.07c-.46-1.31-.65-2.63-.59-3.96.07-1.33.37-2.59.92-3.79.55-1.2,1.31-2.26,2.3-3.19.98-.93,2.17-1.63,3.55-2.12,1.38-.48,2.74-.66,4.08-.55,1.33.12,2.58.47,3.73,1.04,1.15.58,2.17,1.37,3.05,2.36.88,1,1.55,2.15,2.01,3.47l.03.07c.46,1.31.65,2.63.59,3.96Zm-2.48-3.3c-.39-1.11-.95-2.09-1.68-2.93-.73-.84-1.57-1.5-2.52-1.99-.95-.48-1.96-.76-3.05-.85-1.08-.08-2.16.06-3.23.44-1.1.38-2.04.95-2.83,1.7-.79.75-1.4,1.6-1.82,2.55s-.65,1.97-.69,3.07c-.04,1.1.13,2.19.51,3.28l.03.07c.39,1.11.95,2.09,1.68,2.93.73.84,1.57,1.5,2.52,1.99.95.48,1.96.76,3.05.85,1.08.08,2.16-.06,3.23-.44,1.1-.38,2.04-.95,2.83-1.7.79-.75,1.4-1.6,1.82-2.55s.65-1.97.69-3.07c.04-1.1-.13-2.19-.51-3.28l-.02-.07Z"/>
    <path class="cls-2" d="m384.32,199.06l-1.45-4.15c-.2.75-.45,1.49-.75,2.22-.3.73-.69,1.41-1.17,2.04-.47.63-1.05,1.2-1.72,1.73-.68.52-1.47.94-2.4,1.27-1.12.39-2.29.55-3.52.5-1.23-.06-2.42-.35-3.55-.88-1.14-.53-2.18-1.3-3.12-2.32-.94-1.02-1.67-2.28-2.2-3.79l-.03-.07c-.53-1.5-.74-2.95-.63-4.33.1-1.38.43-2.64.99-3.78.56-1.13,1.3-2.11,2.22-2.94.92-.83,1.94-1.43,3.06-1.82.92-.32,1.81-.5,2.67-.53.86-.03,1.67.06,2.44.25.76.2,1.49.48,2.17.83.68.36,1.32.76,1.91,1.21l-4.19-12.01,1.78-.62,9.28,26.57-1.78.62Zm-3.14-9.36c-.42-1.19-1.01-2.2-1.78-3.04-.77-.83-1.63-1.47-2.57-1.92-.95-.45-1.94-.7-2.99-.77-1.05-.07-2.06.06-3.03.4-1.02.36-1.91.87-2.67,1.55-.76.67-1.35,1.47-1.77,2.38-.42.91-.65,1.92-.68,3.04s.17,2.29.6,3.53l.03.07c.42,1.21,1,2.25,1.74,3.11.74.86,1.56,1.52,2.47,1.97.91.46,1.88.72,2.89.79,1.02.07,2.02-.07,2.99-.41.97-.34,1.85-.86,2.62-1.57.78-.71,1.39-1.54,1.85-2.49s.73-1.99.82-3.1c.09-1.12-.08-2.27-.49-3.46l-.03-.07Z"/>
    <path class="cls-2" d="m407.8,190.86l-1.08-3.09c-.16.55-.4,1.11-.7,1.69-.3.58-.68,1.14-1.15,1.67-.47.53-1.04,1.03-1.7,1.49-.67.46-1.44.85-2.31,1.15s-1.78.48-2.71.54c-.93.05-1.83-.04-2.67-.29-.85-.25-1.61-.66-2.29-1.24-.68-.58-1.19-1.35-1.53-2.33l-.03-.07c-.34-.97-.44-1.9-.3-2.79.14-.89.47-1.72,1-2.47.53-.75,1.24-1.44,2.14-2.05.9-.61,1.96-1.13,3.17-1.56,1.31-.46,2.46-.78,3.46-.96,1-.18,1.99-.31,2.97-.38l-.28-.8c-.66-1.88-1.69-3.11-3.1-3.67-1.41-.56-3.07-.51-4.99.16-1.14.4-2.14.9-2.98,1.51-.85.61-1.62,1.28-2.32,2.01l-1.2-1.34c.85-.85,1.74-1.61,2.68-2.27.94-.66,2.05-1.22,3.34-1.67,2.4-.84,4.51-.89,6.31-.16,1.81.73,3.13,2.31,3.98,4.74l4.04,11.58-1.75.61Zm-3.13-9.08c-.84.08-1.82.21-2.93.39-1.11.18-2.33.51-3.66.97-1.97.69-3.34,1.61-4.12,2.76s-.94,2.38-.49,3.69l.03.07c.24.68.59,1.22,1.06,1.64.47.42,1.02.72,1.65.91.62.19,1.3.27,2.02.23.72-.03,1.44-.17,2.14-.42.95-.33,1.8-.78,2.55-1.36.75-.57,1.36-1.22,1.83-1.94.47-.72.77-1.5.9-2.33.13-.83.05-1.67-.25-2.52l-.73-2.1Z"/>
    <path class="cls-2" d="m429.08,180.27c-.09.78-.35,1.51-.77,2.18-.42.68-.97,1.28-1.66,1.8-.69.53-1.48.94-2.38,1.26-1.36.47-2.81.7-4.34.66-1.54-.03-2.94-.28-4.22-.73l.56-1.79c1.29.42,2.57.65,3.83.68,1.26.04,2.49-.16,3.68-.57,1.26-.44,2.21-1.13,2.86-2.06.64-.93.77-1.94.39-3.03l-.03-.07c-.19-.53-.48-.94-.88-1.24-.4-.29-.89-.51-1.45-.63-.56-.13-1.17-.19-1.82-.18-.65,0-1.34.03-2.06.07-.83.04-1.67.08-2.52.1-.85.02-1.64-.04-2.38-.21-.74-.16-1.39-.46-1.96-.88-.57-.43-1-1.05-1.29-1.88l-.03-.07c-.26-.75-.35-1.49-.26-2.21.09-.72.32-1.41.69-2.05.37-.65.89-1.23,1.55-1.75.66-.52,1.44-.93,2.34-1.25,1.12-.39,2.33-.61,3.64-.64,1.31-.04,2.53.1,3.68.42l-.43,1.82c-1.04-.26-2.12-.39-3.22-.39-1.1,0-2.15.18-3.14.53-1.29.45-2.2,1.12-2.75,2-.55.88-.66,1.79-.34,2.71l.03.07c.18.51.48.9.9,1.17.42.27.92.46,1.48.56.57.1,1.2.15,1.9.13.7-.01,1.42-.04,2.14-.07.83-.04,1.65-.07,2.47-.07.82,0,1.59.1,2.31.29.72.2,1.36.51,1.9.95.55.43.96,1.06,1.25,1.89l.03.07c.29.82.38,1.63.29,2.41Z"/>
    <path class="cls-2" d="m452.54,175.24l-3.85-11.03c-.67-1.92-1.71-3.27-3.14-4.07-1.42-.8-3.08-.87-4.97-.2-.92.32-1.71.78-2.38,1.38-.66.6-1.18,1.29-1.56,2.08-.38.79-.59,1.64-.63,2.57-.04.93.1,1.88.44,2.85l3.75,10.74-1.78.62-9.28-26.57,1.78-.62,4,11.47c.25-1.31.78-2.53,1.58-3.66.81-1.12,2.06-1.99,3.76-2.58,1.17-.41,2.27-.58,3.33-.53,1.05.06,2.02.31,2.9.76.88.45,1.65,1.09,2.3,1.91.65.82,1.18,1.79,1.56,2.9l3.97,11.36-1.78.62Z"/>
  </g>
</svg>