<?xml version="1.0" encoding="UTF-8"?>
<svg id="Layer_1" data-name="Layer 1" xmlns="http://www.w3.org/2000/svg" viewBox="0 0 800 800">
  <defs>
    <style>
      .cls-1, .cls-2 {
        fill: #231f20;
      }

      .cls-1, .cls-3 {
        stroke: #f3f3f4;
        stroke-width: .75px;
      }

      .cls-2, .cls-4, .cls-3, .cls-5 {
        stroke-miterlimit: 10;
      }

      .cls-2, .cls-4, .cls-5 {
        stroke: #333;
      }

      .cls-4 {
        stroke-width: 2px;
      }

      .cls-4, .cls-5 {
        fill: none;
      }

      .cls-3 {
        fill: #333;
      }

      .cls-5 {
        stroke-width: .5px;
      }
    </style>
  </defs>
  <g>
    <path class="cls-3" d="m340.24,771.61l1.6-8.05c-1.04,1.02-2.14,1.97-3.32,2.86-1.18.89-2.45,1.62-3.81,2.18-1.36.56-2.83.94-4.41,1.14-1.58.2-3.27.12-5.06-.24-2.17-.43-4.21-1.28-6.14-2.54-1.93-1.26-3.55-2.86-4.88-4.79-1.33-1.93-2.27-4.16-2.82-6.69-.55-2.53-.53-5.26.05-8.18l.03-.14c.58-2.92,1.61-5.44,3.09-7.57,1.48-2.13,3.2-3.84,5.17-5.14,1.97-1.29,4.09-2.17,6.36-2.62,2.27-.45,4.48-.46,6.65-.03,1.79.36,3.39.92,4.8,1.69,1.41.77,2.64,1.68,3.68,2.72,1.04,1.04,1.94,2.17,2.7,3.4.76,1.23,1.4,2.48,1.93,3.76l4.64-23.3,3.46.69-10.27,51.55-3.46-.69Zm3.81-18.04c.46-2.3.47-4.5.02-6.57-.45-2.07-1.22-3.91-2.32-5.53s-2.46-2.97-4.08-4.08c-1.62-1.11-3.37-1.85-5.26-2.22-1.98-.39-3.9-.41-5.77-.05-1.86.36-3.56,1.08-5.1,2.14-1.54,1.06-2.86,2.48-3.97,4.24s-1.91,3.84-2.38,6.24l-.03.14c-.47,2.35-.52,4.57-.15,6.65.37,2.08,1.07,3.92,2.1,5.52,1.03,1.6,2.33,2.94,3.91,4.01,1.58,1.07,3.31,1.8,5.2,2.17,1.89.38,3.79.36,5.71-.04,1.92-.4,3.7-1.15,5.34-2.24s3.06-2.5,4.26-4.22c1.2-1.72,2.03-3.73,2.49-6.04l.03-.14Z"/>
    <path class="cls-3" d="m397.51,776.33l.22-6.12c-.66.84-1.44,1.67-2.36,2.47-.92.81-1.96,1.51-3.14,2.12-1.17.6-2.5,1.08-3.98,1.44-1.48.35-3.08.5-4.81.44-1.73-.06-3.42-.37-5.08-.91-1.66-.54-3.15-1.32-4.45-2.32-1.31-1.01-2.36-2.25-3.14-3.72-.79-1.47-1.15-3.16-1.07-5.08v-.14c.08-1.92.53-3.61,1.38-5.07.85-1.46,1.98-2.67,3.41-3.62,1.43-.96,3.13-1.66,5.12-2.12s4.18-.64,6.58-.55c2.59.09,4.82.32,6.68.68,1.86.36,3.67.81,5.43,1.35l.06-1.57c.14-3.72-.83-6.55-2.89-8.49-2.07-1.94-5-2.98-8.79-3.12-2.25-.08-4.33.12-6.22.6-1.89.48-3.69,1.13-5.4,1.93l-1.18-3.15c2.05-.91,4.12-1.62,6.2-2.13,2.08-.51,4.4-.72,6.94-.63,4.75.17,8.45,1.51,11.09,4.01,2.65,2.5,3.88,6.15,3.71,10.94l-.84,22.88-3.45-.13Zm.73-17.92c-1.52-.44-3.31-.88-5.36-1.31-2.05-.43-4.39-.7-7.03-.79-3.89-.14-6.9.52-9.04,2-2.14,1.48-3.26,3.5-3.36,6.08v.14c-.05,1.34.19,2.53.73,3.58.54,1.05,1.29,1.95,2.24,2.7.96.75,2.08,1.34,3.36,1.77,1.28.43,2.62.67,4.01.72,1.87.07,3.65-.14,5.35-.63,1.7-.49,3.2-1.2,4.51-2.13,1.31-.93,2.36-2.08,3.15-3.44.79-1.36,1.22-2.87,1.28-4.55l.15-4.15Z"/>
    <path class="cls-3" d="m451.99,767.11c-.5,1.38-1.28,2.6-2.32,3.65-1.04,1.05-2.3,1.91-3.78,2.58-1.47.67-3.09,1.09-4.86,1.29-2.67.29-5.4.08-8.18-.63-2.78-.71-5.24-1.75-7.36-3.12l1.77-3.02c2.17,1.31,4.4,2.26,6.68,2.86,2.29.6,4.6.77,6.94.51,2.48-.27,4.5-1.11,6.06-2.54,1.56-1.42,2.22-3.21,1.99-5.35l-.02-.14c-.11-1.05-.47-1.92-1.08-2.63-.61-.71-1.4-1.29-2.37-1.77-.97-.47-2.05-.84-3.23-1.09s-2.44-.5-3.77-.75c-1.53-.27-3.07-.56-4.62-.87-1.55-.31-2.97-.77-4.24-1.38-1.27-.61-2.34-1.42-3.2-2.44-.86-1.01-1.38-2.33-1.55-3.95l-.02-.14c-.16-1.48,0-2.85.46-4.13.46-1.28,1.17-2.43,2.12-3.45.95-1.02,2.14-1.86,3.57-2.52,1.42-.66,3.02-1.09,4.79-1.28,2.19-.24,4.49-.12,6.88.36,2.39.48,4.56,1.25,6.52,2.31l-1.54,3.14c-1.79-.92-3.69-1.6-5.69-2.06-2.01-.46-3.99-.58-5.94-.37-2.53.27-4.48,1.1-5.85,2.48-1.37,1.38-1.96,2.97-1.76,4.78l.02.14c.11,1,.49,1.84,1.14,2.51.65.68,1.47,1.23,2.46,1.65.99.42,2.12.77,3.41,1.04,1.28.27,2.59.53,3.92.77,1.53.27,3.03.57,4.52.92,1.49.34,2.84.85,4.07,1.51,1.23.66,2.25,1.5,3.06,2.52.81,1.02,1.3,2.34,1.48,3.96l.02.14c.18,1.62.01,3.12-.49,4.5Z"/>
    <path class="cls-3" d="m506.95,760.77l-5.52-21.11c-.96-3.67-2.7-6.35-5.23-8.05-2.53-1.69-5.6-2.07-9.22-1.12-1.76.46-3.31,1.2-4.63,2.22-1.32,1.01-2.39,2.23-3.22,3.63s-1.35,2.97-1.56,4.69c-.22,1.72-.09,3.51.4,5.37l5.38,20.55-3.41.89-13.3-50.85,3.41-.89,5.74,21.94c.66-2.41,1.82-4.59,3.49-6.57,1.67-1.97,4.12-3.39,7.38-4.24,2.23-.58,4.32-.74,6.27-.49,1.95.26,3.71.88,5.29,1.86,1.57.98,2.9,2.28,4,3.9,1.09,1.62,1.92,3.5,2.48,5.64l5.68,21.73-3.41.89Z"/>
  </g>
  <g>
    <rect class="cls-4" x="618.29" y="66.66" width="36.69" height="128.42" transform="translate(-8.3 211.43) rotate(-18.74)"/>
    <path class="cls-4" d="m639.83,197.7l-.03-.1-41.28-121.71,34.94-11.85.03.1,41.28,121.71-34.94,11.85Zm-41.06-121.68l41.18,121.42,34.56-11.72-41.19-121.42-34.56,11.72Z"/>
  </g>
  <rect class="cls-4" x="454.1" y="112.67" width="166.2" height="106.61" transform="translate(-24.85 181.35) rotate(-18.74)"/>
  <rect class="cls-4" x="265.95" y="194.14" width="199.43" height="67.71" transform="translate(-53.86 129.54) rotate(-18.74)"/>
  <rect class="cls-4" x="147.54" y="265.85" width="127.65" height="28.97" transform="translate(-78.85 82.75) rotate(-18.74)"/>
  <rect class="cls-4" x="132.05" y="277.81" width="32.55" height="47.82" transform="translate(-89.06 63.63) rotate(-18.74)"/>
  <path class="cls-4" d="m432.1,300.12c0,12.17-9.87,22.04-22.04,22.04h0c-12.17,0-22.04-9.87-22.04-22.04v-39.57c0-12.17,9.87-22.04,22.04-22.04h0c12.17,0,22.04,9.87,22.04,22.04v39.57Z"/>
  <g>
    <circle class="cls-5" cx="410.06" cy="297.29" r="11.91" transform="translate(-8.56 12.17) rotate(-1.68)"/>
    <path class="cls-5" d="m410.06,309.27c-6.6,0-11.98-5.37-11.98-11.98s5.37-11.98,11.98-11.98,11.98,5.37,11.98,11.98-5.37,11.98-11.98,11.98Zm0-23.81c-6.53,0-11.84,5.31-11.84,11.84s5.31,11.84,11.84,11.84,11.84-5.31,11.84-11.84-5.31-11.84-11.84-11.84Z"/>
  </g>
  <path class="cls-4" d="m434.62,368.87c0,15.88-10.56,28.75-23.6,28.75h0c-13.03,0-23.6-12.87-23.6-28.75v-24.56c0-15.88,10.56-28.75,23.6-28.75h0c13.03,0,23.6,12.87,23.6,28.75v24.56Z"/>
  <rect class="cls-4" x="375.24" y="377.35" width="73.46" height="41.43"/>
  <rect class="cls-4" x="369.35" y="398.07" width="88.63" height="54.61"/>
  <path class="cls-4" d="m330.37,586.11c-2.6,5.37-9.07,7.61-14.44,5.01h0c-5.37-2.6-7.61-9.07-5.01-14.44l63.5-130.96c2.6-5.37,9.07-7.61,14.44-5.01h0c5.37,2.6,7.61,9.07,5.01,14.44l-63.5,130.96Z"/>
  <path class="cls-4" d="m282.08,678.8c-1.88,3.87-6.54,5.49-10.41,3.61h0c-3.87-1.88-5.49-6.54-3.61-10.41l45.79-94.44c1.88-3.87,6.54-5.49,10.41-3.61h0c3.87,1.88,5.49,6.54,3.61,10.41l-45.79,94.44Z"/>
  <path class="cls-4" d="m252.16,733.34c-1.05,2.16-3.77,3-6.09,1.88h0c-2.31-1.12-3.34-3.78-2.3-5.94l25.53-52.65c1.05-2.16,3.77-3,6.09-1.88h0c2.31,1.12,3.34,3.78,2.3,5.94l-25.53,52.65Z"/>
  <path class="cls-4" d="m496.15,585.38c2.6,5.37,9.07,7.61,14.44,5.01h0c5.37-2.6,7.61-9.07,5.01-14.44l-63.5-130.96c-2.6-5.37-9.07-7.61-14.44-5.01h0c-5.37,2.6-7.61,9.07-5.01,14.44l63.5,130.96Z"/>
  <path class="cls-4" d="m544.44,678.07c1.88,3.87,6.54,5.49,10.41,3.61h0c3.87-1.88,5.49-6.54,3.61-10.41l-45.79-94.44c-1.88-3.87-6.54-5.49-10.41-3.61h0c-3.87,1.88-5.49,6.54-3.61,10.41l45.79,94.44Z"/>
  <path class="cls-4" d="m575.43,732.93c1.08,2.18,3.73,3.11,5.92,2.07h0c2.19-1.04,3.09-3.65,2.01-5.84l-26.3-53.2c-1.08-2.18-3.73-3.11-5.92-2.07h0c-2.19,1.04-3.09,3.65-2.01,5.84l26.3,53.2Z"/>
  <g>
    <path class="cls-4" d="m421.73,568.51c0,5.39-4.37,9.76-9.76,9.76h0c-5.39,0-9.76-4.37-9.76-9.76v-131.41c0-5.39,4.37-9.76,9.76-9.76h0c5.39,0,9.76,4.37,9.76,9.76v131.41Z"/>
    <path class="cls-4" d="m419.01,656.25c0,3.64-3.15,6.58-7.04,6.58h0c-3.89,0-7.04-2.95-7.04-6.58v-88.64c0-3.64,3.15-6.58,7.04-6.58h0c3.89,0,7.04,2.95,7.04,6.58v88.64Z"/>
    <path class="cls-4" d="m416.17,701.43c0,2.32-1.88,4.21-4.21,4.21h0c-2.32,0-4.21-1.88-4.21-4.21v-56.63c0-2.32,1.88-4.21,4.21-4.21h0c2.32,0,4.21,1.88,4.21,4.21v56.63Z"/>
    <path class="cls-2" d="m421.73,705.64c0,1.27-1.03,2.31-2.31,2.31h-14.9c-1.27,0-2.31-1.03-2.31-2.31h0c0-1.27,1.03-2.31,2.31-2.31h14.9c1.27,0,2.31,1.03,2.31,2.31h0Z"/>
  </g>
  <path class="cls-2" d="m258.27,733.37c0,1.41-1.14,2.56-2.56,2.56h-16.51c-1.41,0-2.56-1.14-2.56-2.56h0c0-1.41,1.14-2.56,2.56-2.56h16.51c1.41,0,2.56,1.14,2.56,2.56h0Z"/>
  <path class="cls-2" d="m590.96,733.4c0,1.41-1.14,2.56-2.56,2.56h-16.51c-1.41,0-2.56-1.14-2.56-2.56h0c0-1.41,1.14-2.56,2.56-2.56h16.51c1.41,0,2.56,1.14,2.56,2.56h0Z"/>
  <g>
    <path class="cls-1" d="m326.76,81.15l-1.58-5.91c-.38,1-.89,2.01-1.53,3.05-.64,1.04-1.43,2.02-2.38,2.95-.95.92-2.07,1.77-3.38,2.54-1.31.77-2.8,1.38-4.47,1.83-1.67.45-3.38.65-5.12.62-1.75-.03-3.39-.33-4.94-.92-1.55-.58-2.91-1.46-4.09-2.63-1.18-1.17-2.02-2.69-2.52-4.54l-.04-.14c-.5-1.86-.55-3.6-.17-5.25.38-1.64,1.11-3.13,2.2-4.46,1.08-1.33,2.51-2.51,4.27-3.53,1.77-1.02,3.81-1.84,6.13-2.46,2.5-.67,4.7-1.11,6.58-1.31,1.88-.2,3.74-.3,5.58-.3l-.41-1.52c-.96-3.6-2.71-6.02-5.26-7.27-2.54-1.25-5.65-1.38-9.31-.4-2.18.58-4.1,1.38-5.77,2.4-1.67,1.02-3.2,2.16-4.6,3.43l-2.05-2.66c1.69-1.47,3.46-2.75,5.31-3.85,1.84-1.1,3.99-1.98,6.45-2.64,4.59-1.23,8.52-1.03,11.78.58,3.26,1.61,5.51,4.74,6.75,9.37l5.91,22.12-3.34.89Zm-4.56-17.34c-1.58.03-3.42.13-5.5.32-2.09.19-4.41.62-6.96,1.3-3.76,1-6.44,2.53-8.06,4.57-1.62,2.04-2.09,4.31-1.42,6.8l.04.14c.34,1.29.93,2.36,1.75,3.21.82.85,1.8,1.49,2.94,1.92,1.14.44,2.38.68,3.73.71s2.7-.13,4.04-.49c1.81-.48,3.45-1.21,4.93-2.17,1.48-.96,2.71-2.08,3.69-3.36s1.64-2.68,2.01-4.21c.36-1.53.33-3.1-.11-4.72l-1.07-4.02Z"/>
    <path class="cls-1" d="m373.73,68.23c-.49,1.38-1.25,2.61-2.29,3.67-1.04,1.06-2.29,1.93-3.75,2.61-1.47.68-3.08,1.12-4.85,1.33-2.67.31-5.4.13-8.19-.55-2.79-.68-5.25-1.7-7.39-3.05l1.75-3.03c2.18,1.29,4.42,2.22,6.71,2.8,2.29.58,4.6.73,6.94.45,2.48-.29,4.49-1.16,6.04-2.59,1.55-1.44,2.19-3.23,1.94-5.37l-.02-.14c-.12-1.04-.49-1.92-1.11-2.62-.61-.7-1.41-1.28-2.38-1.74-.97-.46-2.05-.82-3.24-1.07-1.19-.25-2.45-.48-3.78-.71-1.53-.25-3.07-.53-4.63-.83s-2.98-.75-4.25-1.34c-1.28-.6-2.35-1.4-3.22-2.41-.87-1.01-1.4-2.32-1.59-3.94l-.02-.14c-.17-1.48-.04-2.85.42-4.14.45-1.28,1.15-2.44,2.09-3.47.94-1.03,2.12-1.88,3.54-2.55,1.42-.67,3.01-1.12,4.77-1.32,2.19-.26,4.49-.16,6.89.3,2.4.46,4.58,1.21,6.54,2.25l-1.51,3.15c-1.8-.9-3.7-1.57-5.71-2.01-2.01-.44-3.99-.54-5.95-.31-2.53.3-4.47,1.14-5.83,2.53-1.36,1.39-1.93,2.99-1.72,4.8l.02.14c.12,1,.51,1.83,1.16,2.5.66.67,1.48,1.21,2.48,1.63.99.41,2.13.75,3.42,1.01,1.29.26,2.6.5,3.93.73,1.53.26,3.04.55,4.53.88,1.49.33,2.85.82,4.09,1.47,1.24.65,2.26,1.48,3.08,2.5.82,1.01,1.33,2.33,1.52,3.94l.02.14c.19,1.62.04,3.12-.45,4.5Z"/>
    <path class="cls-1" d="m410.77,73.39c-.94.21-1.98.3-3.14.29-1.44-.01-2.78-.22-4.03-.61-1.24-.39-2.33-1.02-3.26-1.87-.93-.85-1.65-1.91-2.17-3.19-.52-1.28-.77-2.78-.75-4.51l.22-24.05-5.33-.05.03-3.24,5.33.05.11-11.74,3.53.03-.11,11.74,12.89.12-.03,3.24-12.89-.12-.22,23.63c-.02,2.63.64,4.48,2,5.55,1.36,1.06,3.12,1.61,5.28,1.63.91,0,1.78-.07,2.59-.25.82-.17,1.76-.48,2.82-.93l-.03,3.31c-.96.42-1.91.74-2.85.95Z"/>
    <path class="cls-1" d="m457.68,44.04c-2.1-.27-4.15-.14-6.15.4-2.01.54-3.84,1.49-5.49,2.85-1.65,1.36-3.05,3.11-4.2,5.26-1.15,2.15-1.92,4.7-2.3,7.65l-1.93,14.92-3.5-.45,4.72-36.42,3.5.45-1.34,10.35c.92-1.53,2.02-2.91,3.3-4.15,1.27-1.24,2.66-2.26,4.17-3.05,1.51-.8,3.11-1.34,4.82-1.63s3.46-.29,5.26,0l-.5,3.86-.36-.05Z"/>
    <path class="cls-1" d="m505.12,78.35c-1.51,1.98-3.32,3.6-5.43,4.87-2.11,1.27-4.41,2.09-6.91,2.49-2.49.39-5.06.23-7.7-.49-2.64-.72-4.93-1.88-6.85-3.47-1.93-1.59-3.48-3.45-4.64-5.55-1.17-2.11-1.9-4.4-2.2-6.87-.3-2.47-.11-4.95.57-7.46l.04-.14c.68-2.5,1.78-4.74,3.28-6.72,1.51-1.98,3.32-3.6,5.43-4.87,2.11-1.26,4.41-2.09,6.91-2.49,2.49-.39,5.06-.23,7.7.49,2.64.72,4.92,1.88,6.85,3.47,1.93,1.59,3.48,3.45,4.64,5.56,1.17,2.11,1.9,4.4,2.2,6.87.3,2.47.11,4.96-.57,7.46l-.04.14c-.68,2.5-1.78,4.74-3.28,6.72Zm-.33-7.7c.58-2.12.75-4.22.51-6.29-.24-2.07-.83-3.98-1.78-5.72-.95-1.74-2.21-3.25-3.79-4.52-1.58-1.27-3.39-2.19-5.44-2.74-2.09-.57-4.15-.69-6.16-.38-2.01.32-3.84.99-5.49,2-1.65,1.01-3.09,2.34-4.31,3.99-1.22,1.65-2.12,3.51-2.68,5.58l-.04.14c-.58,2.12-.75,4.22-.51,6.29.24,2.07.83,3.98,1.78,5.72.95,1.74,2.21,3.25,3.79,4.52,1.58,1.27,3.39,2.19,5.44,2.74,2.09.57,4.15.7,6.16.38,2.01-.32,3.84-.99,5.49-2,1.65-1.01,3.09-2.34,4.31-3.99,1.22-1.65,2.12-3.51,2.68-5.58l.04-.14Z"/>
  </g>
</svg>